# xmcd
#
# Track frame offsets:
#       150
#       20319
#       41286
#       61664
#       75787
#       96263
#       113259
#       130983
#       149940
#       169218
#       186925
#
# Disc length: 2705 seconds
#
# Revision: 0
# Processed by: cddbd v1.4PL0 Copyright (c) Steve Scherf et al.
# Submitted via: CD-DA_X-Tractor v0.23
#
DISCID=860a8f0b
DTITLE=Laura Hanson - Laura Hanson
DYEAR=2002
DGENRE=
TTITLE0=I will always love you.mp3
TTITLE1=The prayer.mp3
TTITLE2=All I ask of you.mp3
TTITLE3=Bring on the rain.mp3
TTITLE4=Angel.mp3
TTITLE5=All the Way.mp3
TTITLE6=From this moment.mp3
TTITLE7=When I fall in love.mp3
TTITLE8=The woman in me.mp3
TTITLE9=Unchained melody.mp3
TTITLE10=Looking through your eyes.mp3
EXTD=
EXTT0=
EXTT1=
EXTT2=
EXTT3=
EXTT4=
EXTT5=
EXTT6=
EXTT7=
EXTT8=
EXTT9=
EXTT10=
PLAYORDER=
